<svg width="604" height="93" viewBox="0 0 604 93" fill="none" xmlns="http://www.w3.org/2000/svg">
<path d="M4.16 91C3.22133 91 2.45333 90.7013 1.856 90.104C1.25867 89.5067 0.96 88.7387 0.96 87.8V4.6C0.96 3.66133 1.25867 2.89333 1.856 2.296C2.45333 1.69866 3.22133 1.39999 4.16 1.39999H63.936C64.8747 1.39999 65.6427 1.69866 66.24 2.296C66.8373 2.89333 67.136 3.66133 67.136 4.6V16.632C67.136 17.5707 66.8373 18.3387 66.24 18.936C65.6427 19.5333 64.8747 19.832 63.936 19.832H23.104V37.112H61.12C62.0587 37.112 62.8267 37.4533 63.424 38.136C64.0213 38.7333 64.32 39.5013 64.32 40.44V51.576C64.32 52.4293 64.0213 53.1973 63.424 53.88C62.8267 54.4773 62.0587 54.776 61.12 54.776H23.104V72.568H64.96C65.8987 72.568 66.6667 72.8667 67.264 73.464C67.8613 74.0613 68.16 74.8293 68.16 75.768V87.8C68.16 88.7387 67.8613 89.5067 67.264 90.104C66.6667 90.7013 65.8987 91 64.96 91H4.16ZM101.27 92.28C96.662 92.28 92.5233 91.4267 88.854 89.72C85.27 87.928 82.4113 85.5387 80.278 82.552C78.1447 79.5653 77.078 76.1947 77.078 72.44C77.078 66.3813 79.5527 61.6027 84.502 58.104C89.4513 54.52 96.022 52.088 104.214 50.808L120.214 48.376V46.584C120.214 43.512 119.574 41.1653 118.294 39.544C117.014 37.9227 114.667 37.112 111.254 37.112C108.865 37.112 106.902 37.5813 105.366 38.52C103.915 39.4587 102.763 40.7387 101.91 42.36C101.142 43.4693 100.075 44.024 98.71 44.024H84.374C83.4353 44.024 82.71 43.768 82.198 43.256C81.686 42.6587 81.4727 41.976 81.558 41.208C81.558 39.672 82.1127 37.9227 83.222 35.96C84.4167 33.912 86.2087 31.9067 88.598 29.944C90.9873 27.9813 94.0593 26.36 97.814 25.08C101.569 23.8 106.091 23.16 111.382 23.16C116.929 23.16 121.665 23.8 125.59 25.08C129.515 26.36 132.673 28.152 135.062 30.456C137.537 32.76 139.371 35.4907 140.566 38.648C141.761 41.72 142.358 45.1333 142.358 48.888V87.8C142.358 88.7387 142.017 89.5067 141.334 90.104C140.737 90.7013 140.011 91 139.158 91H124.31C123.371 91 122.603 90.7013 122.006 90.104C121.409 89.5067 121.11 88.7387 121.11 87.8V83.32C120.001 84.9413 118.507 86.4347 116.63 87.8C114.753 89.1653 112.534 90.232 109.974 91C107.499 91.8533 104.598 92.28 101.27 92.28ZM107.286 77.688C109.761 77.688 111.979 77.176 113.942 76.152C115.99 75.0427 117.569 73.3787 118.678 71.16C119.873 68.856 120.47 65.9973 120.47 62.584V60.792L109.59 62.712C105.579 63.3947 102.635 64.4613 100.758 65.912C98.966 67.2773 98.07 68.8987 98.07 70.776C98.07 72.2267 98.4967 73.464 99.35 74.488C100.203 75.512 101.313 76.3227 102.678 76.92C104.043 77.432 105.579 77.688 107.286 77.688ZM190.35 91C184.889 91 180.153 90.1467 176.142 88.44C172.217 86.648 169.187 83.9173 167.054 80.248C164.921 76.4933 163.854 71.672 163.854 65.784V41.208H153.87C152.931 41.208 152.121 40.9093 151.438 40.312C150.841 39.7147 150.542 38.9467 150.542 38.008V27.64C150.542 26.7013 150.841 25.9333 151.438 25.336C152.121 24.7387 152.931 24.44 153.87 24.44H163.854V3.31999C163.854 2.38133 164.153 1.61333 164.75 1.016C165.433 0.418663 166.201 0.119995 167.054 0.119995H181.902C182.841 0.119995 183.609 0.418663 184.206 1.016C184.803 1.61333 185.102 2.38133 185.102 3.31999V24.44H201.102C202.041 24.44 202.809 24.7387 203.406 25.336C204.003 25.9333 204.302 26.7013 204.302 27.64V38.008C204.302 38.9467 204.003 39.7147 203.406 40.312C202.809 40.9093 202.041 41.208 201.102 41.208H185.102V63.992C185.102 66.8933 185.657 69.1973 186.766 70.904C187.875 72.6107 189.753 73.464 192.398 73.464H202.254C203.193 73.464 203.961 73.7627 204.558 74.36C205.155 74.9573 205.454 75.7253 205.454 76.664V87.8C205.454 88.7387 205.155 89.5067 204.558 90.104C203.961 90.7013 203.193 91 202.254 91H190.35Z" fill="#EA580C"/>
<path d="M231.796 91C230.345 91 229.193 90.5733 228.34 89.72C227.487 88.8667 226.975 87.8853 226.804 86.776L212.852 4.98399C212.767 4.81333 212.724 4.64266 212.724 4.47199C212.724 4.30133 212.724 4.17333 212.724 4.088C212.724 3.40533 212.98 2.808 213.492 2.296C214.089 1.69866 214.729 1.39999 215.412 1.39999H231.284C233.673 1.39999 234.996 2.33866 235.252 4.216L243.572 54.264L252.788 24.696C253.044 24.0133 253.471 23.288 254.068 22.52C254.665 21.6667 255.647 21.24 257.012 21.24H266.228C267.679 21.24 268.703 21.6667 269.3 22.52C269.897 23.288 270.281 24.0133 270.452 24.696L279.668 54.136L287.988 4.216C288.244 2.33866 289.567 1.39999 291.956 1.39999H307.828C308.596 1.39999 309.236 1.69866 309.748 2.296C310.26 2.808 310.516 3.40533 310.516 4.088C310.516 4.17333 310.516 4.30133 310.516 4.47199C310.516 4.64266 310.516 4.81333 310.516 4.98399L296.564 86.776C296.393 87.8853 295.881 88.8667 295.028 89.72C294.175 90.5733 293.023 91 291.572 91H279.412C277.961 91 276.852 90.616 276.084 89.848C275.316 89.08 274.804 88.3547 274.548 87.672L261.62 51.064L248.692 87.672C248.436 88.3547 247.924 89.08 247.156 89.848C246.473 90.616 245.407 91 243.956 91H231.796ZM325.502 91C324.563 91 323.795 90.7013 323.198 90.104C322.601 89.5067 322.302 88.7387 322.302 87.8V3.31999C322.302 2.38133 322.601 1.61333 323.198 1.016C323.795 0.418663 324.563 0.119995 325.502 0.119995H341.886C342.825 0.119995 343.593 0.418663 344.19 1.016C344.787 1.61333 345.086 2.38133 345.086 3.31999V31.864C347.39 29.2187 350.206 27.128 353.534 25.592C356.947 23.9707 360.873 23.16 365.31 23.16C370.259 23.16 374.654 24.2693 378.494 26.488C382.419 28.7067 385.491 31.992 387.71 36.344C389.929 40.6107 391.038 45.8587 391.038 52.088V87.8C391.038 88.7387 390.739 89.5067 390.142 90.104C389.545 90.7013 388.777 91 387.838 91H371.326C370.473 91 369.705 90.7013 369.022 90.104C368.425 89.5067 368.126 88.7387 368.126 87.8V52.856C368.126 48.8453 367.145 45.7733 365.182 43.64C363.305 41.4213 360.489 40.312 356.734 40.312C353.235 40.312 350.419 41.4213 348.286 43.64C346.153 45.7733 345.086 48.8453 345.086 52.856V87.8C345.086 88.7387 344.787 89.5067 344.19 90.104C343.593 90.7013 342.825 91 341.886 91H325.502ZM436.272 92.28C426.203 92.28 418.181 89.5493 412.208 84.088C406.235 78.6267 403.12 70.52 402.864 59.768C402.864 59.1707 402.864 58.4027 402.864 57.464C402.864 56.5253 402.864 55.8 402.864 55.288C403.12 48.5467 404.613 42.7867 407.344 38.008C410.16 33.144 414 29.4747 418.864 27C423.813 24.44 429.573 23.16 436.144 23.16C443.653 23.16 449.84 24.6533 454.704 27.64C459.653 30.6267 463.365 34.68 465.84 39.8C468.315 44.92 469.552 50.7653 469.552 57.336V60.408C469.552 61.3467 469.211 62.1147 468.528 62.712C467.931 63.3093 467.205 63.608 466.352 63.608H425.392C425.392 63.6933 425.392 63.8213 425.392 63.992C425.392 64.1627 425.392 64.3333 425.392 64.504C425.477 66.9787 425.904 69.24 426.672 71.288C427.44 73.336 428.635 74.9573 430.256 76.152C431.877 77.3467 433.84 77.944 436.144 77.944C437.851 77.944 439.259 77.688 440.368 77.176C441.563 76.5787 442.544 75.9387 443.312 75.256C444.08 74.488 444.677 73.848 445.104 73.336C445.872 72.4827 446.469 71.9707 446.896 71.8C447.408 71.544 448.176 71.416 449.2 71.416H465.072C465.925 71.416 466.608 71.672 467.12 72.184C467.717 72.6107 467.973 73.2507 467.888 74.104C467.803 75.5547 467.077 77.304 465.712 79.352C464.347 81.4 462.341 83.448 459.696 85.496C457.136 87.4587 453.893 89.08 449.968 90.36C446.043 91.64 441.477 92.28 436.272 92.28ZM425.392 50.936H447.024V50.68C447.024 47.9493 446.597 45.56 445.744 43.512C444.976 41.464 443.739 39.8853 442.032 38.776C440.411 37.6667 438.448 37.112 436.144 37.112C433.84 37.112 431.877 37.6667 430.256 38.776C428.72 39.8853 427.525 41.464 426.672 43.512C425.819 45.56 425.392 47.9493 425.392 50.68V50.936ZM484.752 91C483.813 91 483.045 90.7013 482.448 90.104C481.851 89.5067 481.552 88.7387 481.552 87.8V27.64C481.552 26.7867 481.851 26.0613 482.448 25.464C483.045 24.7813 483.813 24.44 484.752 24.44H499.472C500.411 24.44 501.179 24.7813 501.776 25.464C502.373 26.0613 502.672 26.7867 502.672 27.64V32.76C504.976 30.1147 507.707 28.0667 510.864 26.616C514.107 25.1653 517.733 24.44 521.744 24.44H527.376C528.229 24.44 528.955 24.7387 529.552 25.336C530.235 25.9333 530.576 26.7013 530.576 27.64V40.824C530.576 41.6773 530.235 42.4453 529.552 43.128C528.955 43.7253 528.229 44.024 527.376 44.024H514.96C511.461 44.024 508.731 45.0053 506.768 46.968C504.891 48.8453 503.952 51.5333 503.952 55.032V87.8C503.952 88.7387 503.611 89.5067 502.928 90.104C502.331 90.7013 501.563 91 500.624 91H484.752ZM569.897 92.28C559.828 92.28 551.806 89.5493 545.833 84.088C539.86 78.6267 536.745 70.52 536.489 59.768C536.489 59.1707 536.489 58.4027 536.489 57.464C536.489 56.5253 536.489 55.8 536.489 55.288C536.745 48.5467 538.238 42.7867 540.969 38.008C543.785 33.144 547.625 29.4747 552.489 27C557.438 24.44 563.198 23.16 569.769 23.16C577.278 23.16 583.465 24.6533 588.329 27.64C593.278 30.6267 596.99 34.68 599.465 39.8C601.94 44.92 603.177 50.7653 603.177 57.336V60.408C603.177 61.3467 602.836 62.1147 602.153 62.712C601.556 63.3093 600.83 63.608 599.977 63.608H559.017C559.017 63.6933 559.017 63.8213 559.017 63.992C559.017 64.1627 559.017 64.3333 559.017 64.504C559.102 66.9787 559.529 69.24 560.297 71.288C561.065 73.336 562.26 74.9573 563.881 76.152C565.502 77.3467 567.465 77.944 569.769 77.944C571.476 77.944 572.884 77.688 573.993 77.176C575.188 76.5787 576.169 75.9387 576.937 75.256C577.705 74.488 578.302 73.848 578.729 73.336C579.497 72.4827 580.094 71.9707 580.521 71.8C581.033 71.544 581.801 71.416 582.825 71.416H598.697C599.55 71.416 600.233 71.672 600.745 72.184C601.342 72.6107 601.598 73.2507 601.513 74.104C601.428 75.5547 600.702 77.304 599.337 79.352C597.972 81.4 595.966 83.448 593.321 85.496C590.761 87.4587 587.518 89.08 583.593 90.36C579.668 91.64 575.102 92.28 569.897 92.28ZM559.017 50.936H580.649V50.68C580.649 47.9493 580.222 45.56 579.369 43.512C578.601 41.464 577.364 39.8853 575.657 38.776C574.036 37.6667 572.073 37.112 569.769 37.112C567.465 37.112 565.502 37.6667 563.881 38.776C562.345 39.8853 561.15 41.464 560.297 43.512C559.444 45.56 559.017 47.9493 559.017 50.68V50.936Z" fill="#1E40AF"/>
</svg>
